# xmcd
#
# Track frame offsets:
#	150
#	14850
#	41025
#
# Disc length: 1024 seconds
#
# Revision: 2
# Processed by: cddbd v1.5.1PL2 Copyright (c) Steve Scherf et al.
# Submitted via: audiograbber 1.83.01
#
DISCID=2403fe03
DTITLE=Goodfellas feat Lisa Millett - Soul Heaven
DYEAR=2001
DGENRE=House
TTITLE0=Soul Heaven (Radio Edit)
TTITLE1=Soul Heaven (Dave Clarke Remix)
TTITLE2=Soul Heaven (Original Mix)
EXTD=YEAR: 2001
EXTT0=
EXTT1=
EXTT2=
PLAYORDER=
